# xmcd CD database file
#
# Track frame offsets:
#	150
#	17350
#	37682
#	58000
#	72862
#	95202
#	114987
#	132522
#	148930
#	167652
#
# Disc length: 2539 seconds
#
# Revision: 1
# Processed by: cddbd v1.5.1PL0 Copyright (c) Steve Scherf et al.
# Submitted via: CDex 1.51
#
DISCID=8609e90a
DTITLE=石黒ケイ - モン・サン・ミッシェルの孤独
DYEAR=1985
DGENRE=JPop
TTITLE0=雨のフリーウェイ
TTITLE1=Jazzy Night
TTITLE2=モン・サン・ミッシェルの孤独
TTITLE3=愛する勇気
TTITLE4=Last Chance
TTITLE5=私のハーバーライト
TTITLE6=Crystal Knight
TTITLE7=桟橋
TTITLE8=Hold Me
TTITLE9=潮風のラブ・コール
EXTD=YEAR: 1985
EXTT0=
EXTT1=
EXTT2=
EXTT3=
EXTT4=
EXTT5=
EXTT6=
EXTT7=
EXTT8=
EXTT9=
PLAYORDER=
